<?xml version="1.0" standalone="no"?>
<!DOCTYPE svg PUBLIC "-//W3C//DTD SVG 20010904//EN"
 "http://www.w3.org/TR/2001/REC-SVG-20010904/DTD/svg10.dtd">
<svg version="1.0" xmlns="http://www.w3.org/2000/svg"
 width="300.000000pt" height="300.000000pt" viewBox="0 0 300.000000 300.000000"
 preserveAspectRatio="xMidYMid meet">
<metadata>
Created by potrace 1.11, written by Peter Selinger 2001-2013
</metadata>
<g transform="translate(0.000000,300.000000) scale(0.100000,-0.100000)"
fill="#000000" stroke="none">
<path d="M1470 2947 c-16 -23 -40 -56 -52 -73 l-23 -32 -63 65 c-34 36 -64 64
-66 62 -2 -2 -21 -39 -43 -82 l-38 -77 -45 32 c-25 18 -54 41 -64 50 -11 10
-25 18 -31 18 -6 0 -22 -36 -34 -80 -13 -44 -28 -80 -33 -80 -5 0 -42 18 -83
41 -65 36 -75 38 -76 22 -1 -10 -2 -22 -3 -28 -1 -5 -5 -38 -10 -72 -4 -35
-12 -63 -16 -63 -5 0 -44 13 -88 29 l-79 30 1 -92 1 -92 -25 2 c-14 1 -36 4
-50 8 -14 3 -44 8 -66 11 l-42 6 18 -86 c10 -48 15 -88 11 -90 -3 -2 -43 -3
-88 -1 -63 2 -83 -1 -83 -11 0 -7 12 -45 26 -84 14 -40 24 -73 22 -75 -3 -3
-151 -25 -169 -25 -6 0 9 -38 33 -84 l44 -83 -71 -22 c-39 -11 -76 -21 -83
-21 -16 0 -15 -21 3 -44 8 -10 12 -23 9 -28 -3 -5 0 -7 8 -6 7 2 13 -4 13 -12
0 -8 -8 -14 -18 -13 -10 0 -16 -1 -13 -4 3 -3 1 -14 -5 -24 -8 -16 -5 -21 16
-29 14 -5 25 -13 25 -17 0 -5 -25 -19 -55 -32 -30 -13 -55 -27 -55 -30 0 -4 8
-14 17 -22 10 -9 25 -26 33 -37 8 -12 19 -22 25 -22 15 -1 44 -45 37 -56 -4
-5 -34 -27 -67 -49 -33 -21 -62 -40 -64 -42 -6 -4 72 -73 84 -73 5 0 16 -9 23
-20 7 -12 17 -18 22 -15 28 17 3 -17 -49 -69 l-59 -59 23 -23 c13 -13 31 -24
40 -24 10 0 13 -5 9 -12 -5 -9 -2 -9 9 1 15 12 17 11 17 -3 0 -10 5 -14 10
-11 6 3 10 1 10 -5 0 -7 7 -10 15 -6 8 3 15 1 15 -5 0 -11 -78 -119 -95 -132
-6 -4 0 -10 13 -13 18 -5 20 -9 10 -15 -9 -6 -4 -9 15 -9 16 0 26 -4 23 -8 -5
-9 -3 -10 51 -13 19 -1 30 -6 26 -12 -4 -6 0 -8 10 -4 20 8 13 -12 -32 -96
-28 -52 -29 -57 -11 -57 10 0 22 -5 26 -12 4 -6 3 -8 -4 -4 -6 3 -13 3 -16 -2
-4 -8 19 -11 87 -13 9 0 15 -4 12 -10 -4 -5 3 -5 18 0 14 6 27 8 30 5 2 -3 -7
-39 -21 -80 -24 -71 -25 -77 -9 -89 9 -6 13 -16 9 -21 -4 -4 1 -2 11 5 14 11
17 11 17 0 0 -11 2 -11 10 1 9 13 10 13 10 0 0 -13 1 -13 10 0 8 12 11 13 19
1 7 -11 9 -11 14 0 4 12 7 11 16 -1 6 -8 11 -10 11 -4 0 6 7 11 16 11 14 0 15
-8 9 -46 -4 -25 -8 -64 -9 -85 -1 -37 1 -40 32 -47 20 -4 32 -3 32 4 0 6 3 7
7 4 3 -4 13 -1 21 6 13 10 14 9 7 -3 -6 -12 -5 -13 6 -2 17 16 32 16 23 -1 -6
-9 -4 -9 7 1 29 27 36 13 34 -64 -2 -67 0 -77 16 -81 10 -3 17 -9 14 -13 -3
-5 3 -7 12 -6 9 2 19 8 21 14 2 7 8 9 13 6 6 -3 20 2 31 13 12 10 18 12 13 4
-5 -9 -3 -12 6 -9 8 3 13 11 11 18 -3 11 0 11 12 0 13 -10 16 -10 16 0 0 8 2
11 5 8 7 -7 11 -28 20 -100 6 -47 10 -55 24 -50 13 5 14 3 4 -9 -10 -13 -10
-16 2 -16 8 0 15 5 15 10 0 6 3 7 6 4 9 -9 46 12 40 22 -3 4 8 7 23 6 22 -1
28 2 23 13 -4 11 -1 14 12 9 11 -5 15 -3 10 4 -4 7 -1 10 7 7 7 -2 22 -33 34
-69 11 -35 23 -66 27 -67 5 -2 8 -10 8 -19 0 -12 2 -12 16 1 21 21 30 20 14
-1 -7 -10 1 -3 17 14 17 18 33 30 37 26 3 -3 6 1 6 10 0 10 3 16 8 16 18 -3
33 2 28 9 -3 5 2 9 10 9 9 0 29 -27 46 -61 17 -34 35 -64 40 -67 5 -3 9 -9 9
-13 -1 -3 2 -5 7 -3 4 1 6 5 4 10 -1 4 5 7 13 7 8 0 15 7 15 16 0 8 3 13 8 11
4 -3 13 1 20 9 7 8 9 14 5 15 -4 0 2 4 15 10 13 5 21 13 17 18 -3 5 0 13 6 16
13 9 51 -26 70 -63 20 -39 36 -53 62 -56 18 -2 23 2 23 18 -1 12 4 20 12 18 8
-1 11 2 7 8 -3 5 1 13 10 16 9 4 14 13 11 20 -3 7 4 16 15 19 11 4 16 11 13
17 -5 8 -1 9 10 5 10 -4 20 -7 22 -7 2 0 4 -7 4 -16 0 -8 4 -12 10 -9 5 3 10
-2 10 -11 0 -10 3 -14 7 -11 7 8 39 -34 35 -46 -1 -5 2 -6 7 -3 5 4 12 2 16
-4 3 -5 11 -10 17 -10 6 0 8 3 5 7 -4 3 3 18 15 31 13 14 17 22 11 18 -9 -5
-11 -2 -7 8 3 9 11 13 17 9 6 -4 8 0 4 10 -3 10 -2 17 4 17 6 0 7 5 4 10 -3 6
-1 10 6 10 7 0 9 3 6 7 -4 3 1 12 10 18 12 9 20 9 29 1 6 -6 10 -14 7 -18 -2
-5 3 -8 11 -8 9 0 16 -5 16 -11 0 -5 4 -7 10 -4 5 3 10 2 10 -4 0 -5 9 -13 20
-16 11 -3 20 -14 21 -23 0 -11 2 -12 6 -4 2 6 9 10 14 6 5 -3 9 0 9 6 0 6 5 8
13 4 8 -5 8 -2 -2 9 -8 11 -9 17 -3 17 6 0 9 6 6 13 -3 8 2 20 11 27 18 15 20
34 3 24 -7 -4 -5 2 5 13 14 16 15 22 5 26 -8 4 -6 6 5 6 11 1 16 6 12 14 -4 6
1 3 9 -7 9 -11 16 -14 16 -8 0 8 9 4 22 -8 12 -11 30 -20 39 -20 10 0 21 -5
25 -12 5 -7 3 -8 -6 -3 -8 5 -11 4 -6 -3 4 -6 14 -8 23 -5 10 4 14 2 10 -4
-10 -16 17 -11 33 6 13 13 12 14 -3 8 -15 -6 -16 -4 -3 16 8 12 12 30 11 39
-2 10 1 18 6 18 4 0 6 7 3 15 -4 8 -11 12 -17 8 -6 -4 -7 -1 -3 6 5 7 15 10
23 7 9 -4 11 -2 6 7 -14 22 -11 33 8 34 11 1 19 -2 19 -7 0 -4 9 -6 20 -3 15
4 20 0 21 -13 0 -11 3 -13 6 -7 3 10 8 10 19 -1 7 -8 23 -12 34 -9 11 3 20 1
20 -4 0 -5 6 -10 13 -10 13 0 15 65 3 86 -4 6 -4 11 1 11 4 0 8 11 8 24 0 13
-3 22 -7 19 -5 -2 -8 1 -8 6 0 6 5 11 11 11 6 0 9 7 5 15 -7 18 5 20 23 3 11
-10 12 -10 7 -1 -5 9 -2 11 8 7 9 -3 16 -11 16 -18 0 -6 5 -4 11 4 8 12 12 12
16 2 4 -10 8 -10 21 0 13 11 14 11 7 -1 -6 -11 -4 -13 8 -8 10 4 20 0 26 -11
10 -16 10 -16 11 1 0 10 4 16 9 12 6 -3 9 4 8 15 -1 11 -6 20 -12 20 -5 0 -3
5 5 10 12 8 12 10 1 10 -10 0 -11 3 -2 14 9 10 8 16 -4 26 -13 11 -15 40 -6
79 1 2 9 -3 18 -10 14 -12 16 -12 8 0 -6 11 -4 13 8 8 9 -3 18 -1 21 6 3 7 5
6 5 -3 1 -9 10 -16 20 -16 11 0 17 4 15 8 -3 4 0 8 5 8 6 0 11 -6 11 -12 0
-10 3 -9 9 1 5 8 11 9 15 3 3 -6 15 -8 26 -5 19 5 20 6 3 20 -10 8 -12 11 -5
8 11 -6 12 -3 3 14 -7 12 -9 26 -6 31 3 6 3 10 -2 10 -4 0 -13 11 -20 25 -8
19 -8 23 0 18 9 -5 9 -3 1 8 -23 30 -23 46 -1 44 12 -1 28 5 35 14 8 9 11 11
8 4 -4 -7 1 -11 14 -10 11 1 20 6 20 12 0 5 5 3 10 -5 5 -8 10 -10 10 -3 0 6
8 9 18 7 9 -3 26 2 37 11 11 9 14 14 8 10 -12 -5 -18 6 -14 28 0 4 -4 7 -10 7
-6 0 -8 7 -5 15 3 9 -1 18 -10 22 -8 3 -13 12 -10 20 3 8 2 12 -3 9 -4 -3 -13
6 -20 20 -8 19 -8 24 1 18 8 -5 9 -2 5 10 -4 9 -3 14 2 11 5 -3 12 -1 15 4 4
5 17 8 31 6 14 -1 25 1 25 6 0 4 9 6 20 4 11 -2 20 1 20 7 0 6 8 8 18 6 11 -3
19 0 19 8 0 8 -5 14 -10 14 -6 0 -8 3 -4 6 6 6 -41 76 -55 82 -5 2 -8 10 -8
17 0 7 -6 16 -12 18 -10 4 -10 8 2 16 8 5 18 7 24 4 5 -3 6 -1 2 5 -6 11 6 16
27 13 4 0 7 4 7 10 0 6 7 9 15 6 8 -4 17 -2 20 4 4 5 12 6 18 2 7 -4 7 0 -1
10 -12 14 -11 16 8 12 34 -6 15 33 -39 83 -47 43 -62 80 -32 78 9 0 15 5 13
12 -2 11 18 17 42 13 5 -1 6 5 3 13 -4 11 0 14 15 11 11 -3 18 -2 15 2 -4 3 1
12 11 19 16 11 16 13 -2 33 -10 11 -41 35 -67 52 -47 30 -62 49 -38 49 5 0 8
4 4 9 -3 5 4 12 15 16 11 4 18 11 15 16 -4 5 0 9 7 9 16 0 49 36 41 44 -4 3 2
6 13 7 10 0 13 3 7 6 -7 2 -13 10 -13 17 0 7 -31 27 -70 45 -38 18 -70 38 -70
44 0 6 3 7 7 4 9 -10 35 31 28 43 -4 6 -1 9 7 8 7 -2 12 5 12 14 -1 9 4 14 10
12 17 -6 41 37 26 46 -6 4 -11 11 -10 15 0 4 -29 17 -64 29 -36 13 -68 25 -71
27 -6 7 18 59 27 59 4 0 13 10 19 23 12 21 11 21 -6 7 -11 -8 -7 2 9 23 22 28
24 36 11 31 -13 -5 -16 -4 -11 4 4 8 -3 16 -18 22 -15 5 -26 13 -25 17 5 29
-32 78 -47 63 -12 -12 -48 15 -39 29 3 6 10 9 14 7 4 -3 8 1 8 9 0 8 -4 12 -9
9 -16 -10 -8 9 10 23 9 7 13 12 7 11 -5 -2 -11 1 -12 6 -3 18 -25 23 -93 21
-44 -1 -70 2 -71 9 -3 27 4 62 14 75 10 12 9 13 -3 6 -12 -7 -13 -6 -3 6 13
17 14 59 0 59 -4 0 -5 5 -1 12 5 8 -6 9 -42 4 -133 -19 -130 -19 -130 3 0 12
4 21 8 21 4 0 8 5 8 11 0 5 -4 8 -9 5 -5 -4 -7 3 -4 14 3 11 10 20 15 20 5 0
2 7 -7 16 -13 14 -14 19 -3 25 10 7 10 9 1 9 -7 0 -13 8 -13 19 0 18 -2 18
-57 -1 -88 -30 -124 -38 -116 -25 11 18 11 47 0 40 -5 -3 -6 4 -2 17 5 17 4
21 -5 15 -9 -6 -11 -4 -4 6 14 22 13 37 -2 43 -8 3 -14 15 -14 26 0 20 -5 19
-75 -20 -71 -39 -103 -44 -91 -14 3 8 1 14 -4 14 -6 0 -10 5 -10 11 0 5 6 7
13 3 6 -4 3 3 -8 15 -11 13 -19 25 -18 27 5 9 -20 64 -28 64 -6 0 -40 -23 -77
-51 -61 -46 -67 -49 -70 -30 -2 12 -8 21 -13 21 -6 0 -7 5 -4 10 3 6 1 10 -5
10 -7 0 -10 7 -6 15 3 8 1 15 -4 15 -6 0 -10 5 -10 11 0 6 -8 22 -19 35 l-18
24 -67 -67 c-36 -37 -66 -61 -66 -54 0 6 -5 17 -10 24 -40 47 -49 60 -47 66 2
3 -7 16 -20 28 l-23 23 -30 -43z"/>
<path d="M2796 972 c-3 -5 1 -9 9 -9 8 0 12 4 9 9 -3 4 -7 8 -9 8 -2 0 -6 -4
-9 -8z"/>
</g>
</svg>
